<svg viewBox="0 0 200 200" xmlns="http://www.w3.org/2000/svg">
  <defs>
    <linearGradient id="shieldGradient" x1="0%" y1="0%" x2="100%" y2="100%">
      <stop offset="0%" style="stop-color:#64c8ff;stop-opacity:1" />
      <stop offset="50%" style="stop-color:#9664ff;stop-opacity:1" />
      <stop offset="100%" style="stop-color:#ff6b9d;stop-opacity:1" />
    </linearGradient>
    <linearGradient id="eyeGradient" x1="0%" y1="0%" x2="100%" y2="100%">
      <stop offset="0%" style="stop-color:#64c8ff;stop-opacity:1" />
      <stop offset="100%" style="stop-color:#ff1493;stop-opacity:1" />
    </linearGradient>
  </defs>
  
  <!-- Shield background -->
  <path d="M 100 20 L 160 50 L 160 110 Q 100 160 100 160 Q 100 160 40 110 L 40 50 Z" 
        fill="url(#shieldGradient)" opacity="0.2" stroke="url(#shieldGradient)" stroke-width="2"/>
  
  <!-- Eye -->
  <ellipse cx="100" cy="90" rx="35" ry="45" fill="none" stroke="url(#eyeGradient)" stroke-width="3"/>
  
  <!-- Eye iris -->
  <circle cx="100" cy="90" r="20" fill="url(#eyeGradient)" opacity="0.6"/>
  
  <!-- Eye pupil -->
  <circle cx="100" cy="90" r="12" fill="#64c8ff"/>
  
  <!-- Eye highlight -->
  <circle cx="105" cy="85" r="4" fill="white"/>
  
  <!-- Heartbeat line -->
  <polyline points="60,100 70,100 75,85 80,105 85,95 90,100 100,100" 
            fill="none" stroke="#64c8ff" stroke-width="2" stroke-linecap="round" stroke-linejoin="round"/>
  
  <!-- Circuit lines -->
  <line x1="50" y1="70" x2="70" y2="70" stroke="#64c8ff" stroke-width="1.5" opacity="0.6"/>
  <line x1="130" y1="70" x2="150" y2="70" stroke="#9664ff" stroke-width="1.5" opacity="0.6"/>
  <line x1="50" y1="110" x2="70" y2="110" stroke="#9664ff" stroke-width="1.5" opacity="0.6"/>
  <line x1="130" y1="110" x2="150" y2="110" stroke="#64c8ff" stroke-width="1.5" opacity="0.6"/>
  
  <!-- Dots -->
  <circle cx="55" cy="70" r="2" fill="#64c8ff"/>
  <circle cx="145" cy="70" r="2" fill="#9664ff"/>
  <circle cx="55" cy="110" r="2" fill="#9664ff"/>
  <circle cx="145" cy="110" r="2" fill="#64c8ff"/>
</svg>
